<svg xmlns="http://www.w3.org/2000/svg" viewBox="0 0 100 100">
  <path d="M58.88 42.17c-2.84-2.27-7.03-4.46-12.8-6.72-6.3-2.45-8.85-3.95-9.9-4.78a4.79 4.79 0 01-1.8-4.05c0-1.27 0-5.14 10.15-5.14 5.44 0 10.38.88 14.68 2.61a1.85 1.85 0 002.52-1.33l1.93-9.07c.2-.96-.36-1.9-1.3-2.18-3.55-1.01-8.14-1.63-13.67-1.83V2.01A1.86 1.86 0 0046.84 0h-6.37a1.86 1.86 0 00-1.86 2.01l.05 8.1c-5.58.85-9.9 2.93-12.83 6.2a18.23 18.23 0 00-4.85 12.5c0 5.44 2.33 10.08 6.96 13.77 2.7 2.13 6.93 4.33 12.9 6.71 4.56 1.8 7.7 3.37 9.35 4.67 1.71 1.35 2.54 2.92 2.54 4.79 0 3.5-4.06 5.26-12.08 5.26a46.18 46.18 0 01-16.64-3 1.85 1.85 0 00-2.5 1.36l-1.93 9.19c-.21.99.41 1.97 1.4 2.2a85.5 85.5 0 0017.57 2.09l.03 7.6c-.03.52.08 1.02.43 1.4.35.37.84.58 1.36.58h6.5a1.86 1.86 0 001.81-2.28l.02-7.93c11.26-1.98 17.2-8.66 17.2-19.4 0-5.33-2.37-9.92-7.02-13.65z"/>
</svg>
