<svg xmlns="http://www.w3.org/2000/svg" viewBox="0 0 512 512">
  <path d="M503.17 423.73H8.83A8.83 8.83 0 010 414.9V97.1a8.83 8.83 0 018.83-8.82h494.34A8.83 8.83 0 01512 97.1v317.8a8.83 8.83 0 01-8.83 8.83z" fill="#41479b"/>
  <g fill="#ffe15a">
    <path d="M259.59 126.69l3.54 10.6 11.19.1a1.5 1.5 0 01.88 2.72l-9 6.64 3.38 10.67a1.5 1.5 0 01-2.32 1.68l-9.1-6.5-9.1 6.5a1.5 1.5 0 01-2.31-1.68l3.37-10.67-9-6.64a1.5 1.5 0 01.88-2.72l11.19-.1 3.54-10.6a1.5 1.5 0 012.86 0zM259.59 354.55l3.54 10.61 11.19.09a1.5 1.5 0 01.88 2.72l-9 6.64 3.38 10.67a1.5 1.5 0 01-2.32 1.68l-9.1-6.5-9.1 6.5a1.5 1.5 0 01-2.31-1.68l3.37-10.67-9-6.64a1.5 1.5 0 01.88-2.72l11.19-.09 3.54-10.61a1.5 1.5 0 012.86 0zM373.52 240.62l3.54 10.61 11.19.09a1.5 1.5 0 01.88 2.72l-9 6.64 3.38 10.67a1.5 1.5 0 01-2.32 1.68l-9.1-6.5-9.1 6.5a1.5 1.5 0 01-2.31-1.68l3.37-10.67-9-6.64a1.5 1.5 0 01.88-2.72l11.2-.09 3.53-10.61a1.5 1.5 0 012.86 0zM145.66 240.62l3.54 10.61 11.18.09a1.5 1.5 0 01.89 2.72l-9 6.64 3.37 10.67a1.5 1.5 0 01-2.31 1.68l-9.1-6.5-9.1 6.5a1.5 1.5 0 01-2.32-1.68l3.38-10.67-9-6.64a1.5 1.5 0 01.88-2.72l11.19-.09 3.54-10.61a1.5 1.5 0 012.86 0zM162.76 181.12l3.54 10.61 11.19.1a1.5 1.5 0 01.88 2.71l-9 6.65 3.38 10.66a1.5 1.5 0 01-2.32 1.68l-9.1-6.5-9.1 6.5a1.5 1.5 0 01-2.31-1.68l3.37-10.66-9-6.65a1.5 1.5 0 01.89-2.72l11.18-.09 3.54-10.6a1.5 1.5 0 012.86 0zM360.1 295.05l3.54 10.62 11.18.08a1.5 1.5 0 01.89 2.72l-9 6.65 3.37 10.66a1.5 1.5 0 01-2.31 1.69l-9.1-6.51-9.1 6.5a1.5 1.5 0 01-2.32-1.68l3.38-10.66-9-6.65a1.5 1.5 0 01.88-2.72l11.19-.08 3.54-10.62a1.5 1.5 0 012.86 0zM318.4 139.42l3.54 10.61 11.18.09a1.5 1.5 0 01.89 2.72l-9 6.64 3.37 10.67a1.5 1.5 0 01-2.31 1.68l-9.1-6.5-9.1 6.5a1.5 1.5 0 01-2.32-1.68l3.37-10.67-9-6.64a1.5 1.5 0 01.89-2.72l11.19-.09 3.54-10.61a1.5 1.5 0 012.85 0zM204.46 336.75l3.54 10.62 11.19.08a1.5 1.5 0 01.88 2.72l-9 6.65 3.38 10.67a1.5 1.5 0 01-2.32 1.68l-9.1-6.5-9.1 6.5a1.5 1.5 0 01-2.31-1.68l3.37-10.67-9-6.65a1.5 1.5 0 01.89-2.72l11.18-.08 3.54-10.62a1.5 1.5 0 012.86 0zM357.24 181.12l-3.54 10.61-11.2.1a1.5 1.5 0 00-.88 2.71l9 6.65-3.37 10.66a1.5 1.5 0 002.31 1.68l9.1-6.5 9.1 6.5a1.5 1.5 0 002.32-1.68l-3.37-10.66 9-6.65a1.5 1.5 0 00-.89-2.72l-11.18-.09-3.54-10.6a1.5 1.5 0 00-2.86 0zM159.9 295.05l-3.54 10.62-11.19.08a1.5 1.5 0 00-.88 2.72l9 6.65-3.37 10.66a1.5 1.5 0 002.31 1.69l9.1-6.51 9.1 6.5a1.5 1.5 0 002.32-1.68l-3.38-10.66 9-6.65a1.5 1.5 0 00-.88-2.72l-11.19-.08-3.54-10.62a1.5 1.5 0 00-2.86 0zM201.6 139.42l-3.54 10.61-11.18.09a1.5 1.5 0 00-.89 2.72l9 6.64-3.37 10.67a1.5 1.5 0 002.31 1.68l9.1-6.5 9.1 6.5a1.5 1.5 0 002.32-1.68l-3.38-10.67 9-6.64a1.5 1.5 0 00-.88-2.72l-11.19-.09-3.54-10.61a1.5 1.5 0 00-2.86 0zM315.53 336.75L312 347.37l-11.18.08a1.5 1.5 0 00-.89 2.72l9 6.65-3.37 10.67a1.5 1.5 0 002.31 1.68l9.1-6.5 9.1 6.5a1.5 1.5 0 002.32-1.68L325 356.82l9-6.65a1.5 1.5 0 00-.88-2.72l-11.19-.08-3.54-10.62a1.5 1.5 0 00-2.86 0z"/>
  </g>
</svg>
