<svg xmlns="http://www.w3.org/2000/svg" width="500" height="500">
  <path d="M34.79 428.96h81.15v69.58c0 3.38 1.09 6.15 3.27 8.32 2.17 2.18 4.95 3.27 8.33 3.27h60.5c3.14 0 5.86-1.1 8.16-3.27a10.93 10.93 0 003.43-8.32v-69.58H382.6c3.37 0 6.15-1.07 8.33-3.25 2.18-2.18 3.26-4.95 3.26-8.34V371c0-3.36-1.08-6.15-3.26-8.32-2.17-2.18-4.96-3.27-8.33-3.27H199.63v-42.75H322.8c48.3 0 87.73-14.72 118.3-44.2 30.55-29.45 45.83-67.5 45.83-114.13 0-46.6-15.28-84.64-45.83-114.12C410.55 14.75 371.1 0 322.8 0H127.53c-3.38 0-6.15 1.09-8.33 3.26a11.33 11.33 0 00-3.26 8.33v227.9H34.79c-3.39 0-6.16 1.14-8.34 3.44a11.46 11.46 0 00-3.26 8.15v53.97c0 3.39 1.08 6.16 3.26 8.34 2.18 2.18 4.95 3.26 8.34 3.26h81.15v42.75H34.8c-3.39 0-6.16 1.1-8.34 3.27-2.17 2.17-3.26 4.95-3.26 8.32v46.38c0 3.38 1.08 6.16 3.26 8.34 2.18 2.18 4.95 3.25 8.34 3.25zM199.63 77.18h115.94c25.6 0 46.24 7.48 61.95 22.46 15.7 14.98 23.55 34.55 23.55 58.69 0 24.16-7.85 43.73-23.55 58.7-15.7 14.98-36.35 22.46-61.95 22.46H199.63V77.18z"/>
</svg>
