<svg xmlns="http://www.w3.org/2000/svg" viewBox="0 0 512 512">
  <path d="M503.2 423.7H8.8c-4.8 0-8.8-4-8.8-8.8V97.1c0-4.9 4-8.8 8.8-8.8h494.4c4.8 0 8.8 4 8.8 8.8v317.8c0 4.9-4 8.8-8.8 8.8z" fill="#f5f5f5"/>
  <g fill="#ff4b55">
    <path d="M512 114H0V97.2c0-4.9 4-8.8 8.8-8.8h494.4c4.8 0 8.8 4 8.8 8.8v17zM0 191.5h512v25.8H0zM0 139.9h512v25.8H0zM512 268.9H8.8c-4.8 0-8.8-4-8.8-8.8v-17h512v25.8zM0 346.3h512v25.8H0zM503.2 423.7H8.8c-4.8 0-8.8-4-8.8-8.8v-17h512v17c0 4.9-4 8.8-8.8 8.8zM0 294.7h512v25.8H0z"/>
  </g>
  <path d="M229.5 88.3H8.8C4 88.3 0 92.3 0 97v163c0 4.8 4 8.8 8.8 8.8h220.7c4.9 0 8.8-4 8.8-8.8V97c0-4.9-4-8.8-8.8-8.8z" fill="#41479b"/>
  <g fill="#f5f5f5">
    <path d="M24.8 108.5l2 5.9h6.1c.8 0 1.2 1 .5 1.5l-5 3.7 1.9 6a.8.8 0 01-1.3.8l-5-3.6-5 3.6a.8.8 0 01-1.3-.9l1.9-5.9-5-3.7a.8.8 0 01.5-1.5h6.2l2-5.9a.8.8 0 011.5 0zM24.8 139.2l2 5.9h6.1c.8 0 1.2 1 .5 1.5l-5 3.7 1.9 5.9a.8.8 0 01-1.3.9l-5-3.6-5 3.6a.8.8 0 01-1.3-1l1.9-5.8-5-3.7a.8.8 0 01.5-1.5h6.2l2-6a.8.8 0 011.5 0zM24.8 169.8l2 6h6.1c.8 0 1.2 1 .5 1.5l-5 3.6 1.9 6a.8.8 0 01-1.3.8l-5-3.5-5 3.5a.8.8 0 01-1.3-.9l1.9-5.9-5-3.6a.8.8 0 01.5-1.5h6.2l2-6a.8.8 0 011.5 0zM24.8 200.5l2 5.9h6.1c.8 0 1.2 1 .5 1.5l-5 3.7 1.9 5.9a.8.8 0 01-1.3.9l-5-3.6-5 3.6a.8.8 0 01-1.3-1l1.9-5.8-5-3.7a.8.8 0 01.5-1.5h6.2l2-5.9a.8.8 0 011.5 0zM24.8 231.2l2 5.8h6.1c.8 0 1.2 1 .5 1.6l-5 3.6 1.9 6a.8.8 0 01-1.3.9l-5-3.6-5 3.6a.8.8 0 01-1.3-1l1.9-5.9-5-3.6a.8.8 0 01.5-1.5h6.2l2-6a.8.8 0 011.5 0zM48.6 123.6l2 5.8h6.1c.8 0 1.1 1.1.5 1.6l-5 3.6 1.9 6a.8.8 0 01-1.3.9l-5-3.6-5 3.6a.8.8 0 01-1.3-1l1.9-5.9-5-3.6a.8.8 0 01.5-1.5H45l2-6a.8.8 0 011.6 0zM48.6 154.2l2 5.9h6.1c.8 0 1.1 1 .5 1.5l-5 3.7 1.9 5.9a.8.8 0 01-1.3 1l-5-3.7-5 3.6a.8.8 0 01-1.3-1l1.9-5.8-5-3.7a.8.8 0 01.5-1.5H45l2-5.9a.8.8 0 011.6 0zM48.6 184.9l2 5.8h6.1c.8 0 1.1 1.1.5 1.6l-5 3.7 1.9 5.8a.8.8 0 01-1.3 1l-5-3.6-5 3.6a.8.8 0 01-1.3-1l1.9-5.8-5-3.7a.8.8 0 01.5-1.5H45l2-6a.8.8 0 011.6 0zM48.6 215.5l2 5.9h6.1c.8 0 1.1 1 .5 1.5l-5 3.7 1.9 5.9a.8.8 0 01-1.3 1l-5-3.7-5 3.6a.8.8 0 01-1.3-.9l1.9-5.9-5-3.7a.8.8 0 01.5-1.5H45l2-5.9a.8.8 0 011.6 0zM72.4 108.5l2 5.9h6.1c.8 0 1.1 1 .5 1.5l-5 3.7 1.9 6a.8.8 0 01-1.3.8l-5-3.6-5 3.6a.8.8 0 01-1.3-.9l1.8-5.9-5-3.7a.8.8 0 01.6-1.5h6.1l2-5.9a.8.8 0 011.6 0zM72.4 139.2l2 5.9h6.1c.8 0 1.1 1 .5 1.5l-5 3.7 1.9 5.9a.8.8 0 01-1.3.9l-5-3.6-5 3.6a.8.8 0 01-1.3-1l1.8-5.8-5-3.7a.8.8 0 01.6-1.5h6.1l2-6a.8.8 0 011.6 0zM72.4 169.8l2 6h6.1c.8 0 1.1 1 .5 1.5l-5 3.6 1.9 6a.8.8 0 01-1.3.8l-5-3.5-5 3.5a.8.8 0 01-1.3-.9L67 181l-5-3.6a.8.8 0 01.6-1.5h6.1l2-6a.8.8 0 011.6 0zM72.4 200.5l2 5.9h6.1c.8 0 1.1 1 .5 1.5l-5 3.7 1.9 5.9a.8.8 0 01-1.3.9l-5-3.6-5 3.6a.8.8 0 01-1.3-1l1.8-5.8-5-3.7a.8.8 0 01.6-1.5h6.1l2-5.9a.8.8 0 011.6 0zM72.4 231.2l2 5.8h6.1c.8 0 1.1 1 .5 1.6l-5 3.6 1.9 6a.8.8 0 01-1.3.9l-5-3.6-5 3.6a.8.8 0 01-1.3-1l1.8-5.9-5-3.6a.8.8 0 01.6-1.5h6.1l2-6a.8.8 0 011.6 0zM96.2 123.6l2 5.8h6.1c.8 0 1.1 1.1.5 1.6l-5 3.6 1.9 6a.8.8 0 01-1.3.9l-5-3.6-5 3.6a.8.8 0 01-1.3-1l1.8-5.9-5-3.6a.8.8 0 01.6-1.5h6.1l2-6a.8.8 0 011.6 0zM96.2 154.2l2 5.9h6.1c.8 0 1.1 1 .5 1.5l-5 3.7 1.9 5.9a.8.8 0 01-1.3 1l-5-3.7-5 3.6a.8.8 0 01-1.3-1l1.8-5.8-5-3.7a.8.8 0 01.6-1.5h6.1l2-5.9a.8.8 0 011.6 0zM96.2 184.9l2 5.8h6.1c.8 0 1.1 1.1.5 1.6l-5 3.7 1.9 5.8a.8.8 0 01-1.3 1l-5-3.6-5 3.6a.8.8 0 01-1.3-1l1.8-5.8-5-3.7a.8.8 0 01.6-1.5h6.1l2-6a.8.8 0 011.6 0zM96.2 215.5l2 5.9h6.1c.8 0 1.1 1 .5 1.5l-5 3.7 1.9 5.9a.8.8 0 01-1.3 1l-5-3.7-5 3.6a.8.8 0 01-1.3-.9l1.8-5.9-5-3.7a.8.8 0 01.6-1.5h6.1l2-5.9a.8.8 0 011.6 0zM120 108.5l2 5.9h6c.9 0 1.2 1 .6 1.5l-5 3.7 1.9 6a.8.8 0 01-1.3.8l-5-3.6-5 3.6a.8.8 0 01-1.3-.9l1.8-5.9-5-3.7a.8.8 0 01.6-1.5h6.1l2-5.9a.8.8 0 011.6 0zM120 139.2l2 5.9h6c.9 0 1.2 1 .6 1.5l-5 3.7 1.9 5.9a.8.8 0 01-1.3.9l-5-3.6-5 3.6a.8.8 0 01-1.3-1l1.8-5.8-5-3.7a.8.8 0 01.6-1.5h6.1l2-6a.8.8 0 011.6 0zM120 169.8l2 6h6c.9 0 1.2 1 .6 1.5l-5 3.6 1.9 6a.8.8 0 01-1.3.8l-5-3.5-5 3.5a.8.8 0 01-1.3-.9l1.8-5.9-5-3.6a.8.8 0 01.6-1.5h6.1l2-6a.8.8 0 011.6 0zM120 200.5l2 5.9h6c.9 0 1.2 1 .6 1.5l-5 3.7 1.9 5.9a.8.8 0 01-1.3.9l-5-3.6-5 3.6a.8.8 0 01-1.3-1l1.8-5.8-5-3.7a.8.8 0 01.6-1.5h6.1l2-5.9a.8.8 0 011.6 0zM120 231.2l2 5.8h6c.9 0 1.2 1 .6 1.6l-5 3.6 1.9 6a.8.8 0 01-1.3.9l-5-3.6-5 3.6a.8.8 0 01-1.3-1l1.8-5.9-5-3.6a.8.8 0 01.6-1.5h6.1l2-6a.8.8 0 011.6 0zM143.8 123.6l2 5.8h6c.9 0 1.2 1.1.6 1.6l-5 3.6 1.9 6a.8.8 0 01-1.3.9l-5-3.6-5 3.6a.8.8 0 01-1.3-1l1.8-5.9-5-3.6a.8.8 0 01.5-1.5h6.2l2-6a.8.8 0 011.6 0zM143.8 154.2l2 5.9h6c.9 0 1.2 1 .6 1.5l-5 3.7 1.9 5.9a.8.8 0 01-1.3 1l-5-3.7-5 3.6a.8.8 0 01-1.3-1l1.8-5.8-5-3.7a.8.8 0 01.5-1.5h6.2l2-5.9a.8.8 0 011.6 0zM143.8 184.9l2 5.8h6c.9 0 1.2 1.1.6 1.6l-5 3.7 1.9 5.8a.8.8 0 01-1.3 1l-5-3.6-5 3.6a.8.8 0 01-1.3-1l1.8-5.8-5-3.7a.8.8 0 01.5-1.5h6.2l2-6a.8.8 0 011.6 0zM143.8 215.5l2 5.9h6c.9 0 1.2 1 .6 1.5l-5 3.7 1.9 5.9a.8.8 0 01-1.3 1l-5-3.7-5 3.6a.8.8 0 01-1.3-.9l1.8-5.9-5-3.7a.8.8 0 01.5-1.5h6.2l2-5.9a.8.8 0 011.6 0zM167.5 108.5l2 5.9h6.2c.8 0 1.1 1 .5 1.5l-5 3.7 1.9 6a.8.8 0 01-1.3.8l-5-3.6-5 3.6a.8.8 0 01-1.3-.9l1.8-5.9-5-3.7a.8.8 0 01.5-1.5h6.2l2-5.9a.8.8 0 011.5 0zM167.5 139.2l2 5.9h6.2c.8 0 1.1 1 .5 1.5l-5 3.7 1.9 5.9a.8.8 0 01-1.3.9l-5-3.6-5 3.6a.8.8 0 01-1.3-1l1.8-5.8-5-3.7a.8.8 0 01.5-1.5h6.2l2-6a.8.8 0 011.5 0zM167.5 169.8l2 6h6.2c.8 0 1.1 1 .5 1.5l-5 3.6 1.9 6a.8.8 0 01-1.3.8l-5-3.5-5 3.5a.8.8 0 01-1.3-.9l1.8-5.9-5-3.6a.8.8 0 01.5-1.5h6.2l2-6a.8.8 0 011.5 0zM167.5 200.5l2 5.9h6.2c.8 0 1.1 1 .5 1.5l-5 3.7 1.9 5.9a.8.8 0 01-1.3.9l-5-3.6-5 3.6a.8.8 0 01-1.3-1l1.8-5.8-5-3.7a.8.8 0 01.5-1.5h6.2l2-5.9a.8.8 0 011.5 0zM167.5 231.2l2 5.8h6.2c.8 0 1.1 1 .5 1.6l-5 3.6 1.9 6a.8.8 0 01-1.3.9l-5-3.6-5 3.6a.8.8 0 01-1.3-1l1.8-5.9-5-3.6a.8.8 0 01.5-1.5h6.2l2-6a.8.8 0 011.5 0zM191.3 123.6l2 5.8h6.2c.8 0 1.1 1.1.5 1.6l-5 3.6 1.9 6a.8.8 0 01-1.3.9l-5-3.6-5 3.6a.8.8 0 01-1.3-1l1.8-5.9-5-3.6a.8.8 0 01.5-1.5h6.2l2-6a.8.8 0 011.5 0zM191.3 154.2l2 5.9h6.2c.8 0 1.1 1 .5 1.5l-5 3.7 1.9 5.9a.8.8 0 01-1.3 1l-5-3.7-5 3.6a.8.8 0 01-1.3-1l1.8-5.8-5-3.7a.8.8 0 01.5-1.5h6.2l2-5.9a.8.8 0 011.5 0zM191.3 184.9l2 5.8h6.2c.8 0 1.1 1.1.5 1.6l-5 3.7 1.9 5.8a.8.8 0 01-1.3 1l-5-3.6-5 3.6a.8.8 0 01-1.3-1l1.8-5.8-5-3.7a.8.8 0 01.5-1.5h6.2l2-6a.8.8 0 011.5 0zM191.3 215.5l2 5.9h6.2c.8 0 1.1 1 .5 1.5l-5 3.7 1.9 5.9a.8.8 0 01-1.3 1l-5-3.7-5 3.6a.8.8 0 01-1.3-.9l1.8-5.9-5-3.7a.8.8 0 01.5-1.5h6.2l2-5.9a.8.8 0 011.5 0zM215.1 108.5l2 5.9h6.2c.8 0 1.1 1 .5 1.5l-5 3.7 1.8 6a.8.8 0 01-1.2.8l-5-3.6-5 3.6a.8.8 0 01-1.4-.9l2-5.9-5-3.7a.8.8 0 01.4-1.5h6.2l2-5.9a.8.8 0 011.5 0zM215.1 139.2l2 5.9h6.2c.8 0 1.1 1 .5 1.5l-5 3.7 1.8 5.9a.8.8 0 01-1.2.9l-5-3.6-5 3.6a.8.8 0 01-1.4-1l2-5.8-5-3.7a.8.8 0 01.4-1.5h6.2l2-6a.8.8 0 011.5 0zM215.1 169.8l2 6h6.2c.8 0 1.1 1 .5 1.5l-5 3.6 1.8 6a.8.8 0 01-1.2.8l-5-3.5-5 3.5a.8.8 0 01-1.4-.9l2-5.9-5-3.6a.8.8 0 01.4-1.5h6.2l2-6a.8.8 0 011.5 0zM215.1 200.5l2 5.9h6.2c.8 0 1.1 1 .5 1.5l-5 3.7 1.8 5.9a.8.8 0 01-1.2.9l-5-3.6-5 3.6a.8.8 0 01-1.4-1l2-5.8-5-3.7a.8.8 0 01.4-1.5h6.2l2-5.9a.8.8 0 011.5 0zM215.1 231.2l2 5.8h6.2c.8 0 1.1 1 .5 1.6l-5 3.6 1.8 6a.8.8 0 01-1.2.9l-5-3.6-5 3.6a.8.8 0 01-1.4-1l2-5.9-5-3.6a.8.8 0 01.4-1.5h6.2l2-6a.8.8 0 011.5 0z"/>
  </g>
</svg>
