<svg xmlns="http://www.w3.org/2000/svg" width="500" height="500">
  <path d="M374.36 342.63c-25.56 26.9-58.29 41.7-92.16 41.7-55.5 0-103.57-38.98-126.19-95.32H310.2a24.21 24.21 0 000-48.42H143.7a200.15 200.15 0 01.4-51.45h166.1a24.21 24.21 0 000-48.42H157.3c23.1-54.7 70.4-92.3 124.9-92.3 33.87 0 66.6 14.8 92.16 41.7a24.21 24.21 0 0035.1-33.36C374.67 20.16 329.48 0 282.21 0 201.5 0 132.5 58.62 105.73 140.72H40.85a24.21 24.21 0 000 48.42h54.5c-.97 8.94-1.53 18.01-1.53 27.24 0 8.2.42 16.26 1.2 24.21H40.86a24.21 24.21 0 000 48.42h63.92c26.04 83.7 95.73 143.75 177.43 143.75 47.28 0 92.46-20.16 127.25-56.75a24.2 24.2 0 00-35.09-33.38z"/>
</svg>
